<svg width="883" height="250" viewBox="0 0 883 250" fill="none" xmlns="http://www.w3.org/2000/svg">
<rect width="883" height="124.598" fill="#F4F1EB"/>
<path d="M832.475 149.587C832.325 150.142 832.167 150.697 832.005 151.251L831.595 151.132C831.435 151.68 831.269 152.228 831.096 152.774L831.504 152.903C831.331 153.452 831.15 154.002 830.964 154.55L830.559 154.413C830.376 154.953 830.187 155.492 829.992 156.031L830.393 156.176C830.197 156.717 829.995 157.258 829.787 157.797L829.388 157.642C829.284 157.911 829.178 158.179 829.072 158.447C828.965 158.714 828.858 158.981 828.748 159.247L829.144 159.409C828.925 159.944 828.699 160.474 828.469 161.002L828.078 160.832C827.849 161.357 827.615 161.879 827.376 162.397L827.765 162.576C827.523 163.102 827.276 163.624 827.024 164.142L826.639 163.956C826.388 164.472 826.132 164.984 825.871 165.492L826.252 165.686C825.989 166.2 825.721 166.711 825.447 167.217L825.071 167.015C824.798 167.52 824.52 168.022 824.238 168.519L824.61 168.73C824.326 169.231 824.036 169.729 823.742 170.222L823.375 170.004C823.08 170.498 822.781 170.987 822.478 171.473L822.841 171.7C822.536 172.188 822.226 172.672 821.912 173.152L821.553 172.919C821.238 173.4 820.918 173.876 820.594 174.349L820.946 174.59C820.62 175.066 820.29 175.537 819.955 176.004L819.606 175.755C819.272 176.221 818.933 176.684 818.589 177.142L818.932 177.4C818.586 177.861 818.233 178.316 817.878 178.769L817.542 178.505C817.188 178.957 816.829 179.404 816.466 179.846L816.797 180.117C816.431 180.563 816.061 181.005 815.687 181.442L815.361 181.164C814.989 181.6 814.611 182.03 814.23 182.457L814.55 182.742C814.165 183.172 813.775 183.598 813.381 184.019L813.069 183.727C812.678 184.146 812.283 184.562 811.883 184.971L812.189 185.269C811.787 185.682 811.381 186.091 810.97 186.495L810.67 186.19C810.261 186.592 809.848 186.99 809.431 187.382L809.725 187.694C809.305 188.089 808.881 188.479 808.454 188.865L808.168 188.548C807.742 188.933 807.312 189.312 806.878 189.687L807.158 190.01C806.722 190.387 806.283 190.759 805.84 191.126L805.567 190.797C805.125 191.163 804.68 191.524 804.231 191.88L804.497 192.216C804.046 192.574 803.59 192.926 803.131 193.274L802.873 192.933C802.416 193.28 801.955 193.622 801.492 193.959L801.743 194.305C801.276 194.643 800.807 194.978 800.335 195.306L800.09 194.954C799.619 195.281 799.145 195.603 798.667 195.92L798.904 196.278C798.424 196.596 797.94 196.909 797.453 197.217L797.224 196.855C796.74 197.162 796.252 197.464 795.762 197.76L795.983 198.125C795.49 198.423 794.993 198.716 794.494 199.004L794.281 198.633C793.784 198.919 793.284 199.199 792.782 199.474L792.987 199.85C792.482 200.127 791.973 200.398 791.462 200.664L791.265 200.285C790.757 200.55 790.245 200.809 789.732 201.062L789.921 201.445C789.404 201.7 788.885 201.951 788.363 202.195L788.181 201.808C787.662 202.051 787.141 202.289 786.617 202.521L786.79 202.911C786.263 203.145 785.734 203.372 785.202 203.594L785.037 203.2C784.508 203.421 783.977 203.636 783.444 203.845L783.6 204.243C783.063 204.453 782.525 204.659 781.985 204.858L781.836 204.458C781.299 204.656 780.759 204.848 780.217 205.035L780.357 205.439C779.812 205.627 779.266 205.811 778.717 205.987L778.586 205.579C778.04 205.754 777.493 205.924 776.943 206.088L777.066 206.498C776.514 206.663 775.96 206.821 775.404 206.975L775.291 206.562C774.739 206.715 774.184 206.861 773.628 207.002L773.732 207.415C773.174 207.556 772.615 207.694 772.054 207.824L771.957 207.406C771.399 207.534 770.839 207.657 770.278 207.774L770.365 208.192C769.801 208.31 769.236 208.421 768.669 208.527L768.591 208.106C768.027 208.211 767.462 208.31 766.896 208.403L766.966 208.825C766.398 208.919 765.829 209.008 765.259 209.089L765.198 208.664C764.63 208.745 764.062 208.82 763.492 208.889L763.544 209.314C762.972 209.383 762.4 209.446 761.826 209.503L761.785 209.077C761.214 209.134 760.643 209.184 760.071 209.229L760.104 209.655C759.53 209.7 758.956 209.74 758.38 209.772L758.356 209.344C757.784 209.377 757.212 209.403 756.638 209.423L756.653 209.851C756.077 209.871 755.501 209.885 754.925 209.893L754.92 209.465C754.347 209.473 753.774 209.475 753.201 209.471L753.197 209.898C752.621 209.894 752.044 209.884 751.467 209.868L751.479 209.44C750.908 209.423 750.336 209.4 749.764 209.371L749.742 209.798C749.167 209.769 748.591 209.734 748.016 209.693L748.047 209.267C747.476 209.226 746.906 209.178 746.335 209.125L746.295 209.55C745.721 209.497 745.148 209.438 744.574 209.372L744.624 208.946C744.055 208.881 743.486 208.809 742.917 208.732L742.859 209.155C742.289 209.077 741.72 208.993 741.15 208.903L741.218 208.481C740.652 208.392 740.085 208.295 739.52 208.193L739.443 208.614C738.878 208.512 738.314 208.403 737.749 208.289L737.835 207.871C737.273 207.757 736.712 207.636 736.151 207.51L736.057 207.927C735.496 207.801 734.936 207.668 734.376 207.53L734.479 207.116C733.924 206.978 733.369 206.834 732.815 206.684L732.702 207.098C732.147 206.948 731.592 206.791 731.037 206.629L731.158 206.219C730.61 206.058 730.063 205.891 729.516 205.719L729.386 206.126C728.836 205.953 728.287 205.773 727.739 205.587L727.877 205.182C727.337 204.999 726.797 204.809 726.259 204.614L726.113 205.015C725.572 204.819 725.031 204.617 724.492 204.409L724.647 204.01C724.379 203.907 724.111 203.802 723.843 203.695C723.576 203.588 723.308 203.48 723.042 203.371L722.88 203.766C722.345 203.547 721.814 203.321 721.287 203.091L721.457 202.7C720.932 202.471 720.41 202.238 719.893 201.999L719.713 202.388C719.187 202.146 718.665 201.898 718.146 201.646L718.334 201.262C717.819 201.011 717.306 200.755 716.798 200.495L716.603 200.874C716.089 200.611 715.578 200.344 715.072 200.07L715.275 199.693C714.77 199.42 714.268 199.143 713.771 198.861L713.56 199.232C713.058 198.948 712.56 198.659 712.067 198.365L712.286 197.997C711.792 197.703 711.302 197.405 710.816 197.101L710.589 197.464C710.101 197.158 709.617 196.848 709.136 196.533L709.371 196.176C708.89 195.861 708.413 195.541 707.94 195.217L707.698 195.568C707.223 195.242 706.752 194.911 706.284 194.576L706.534 194.229C706.068 193.895 705.606 193.555 705.148 193.211L704.891 193.554C704.429 193.208 703.973 192.856 703.52 192.5L703.784 192.164C703.333 191.81 702.886 191.452 702.444 191.089L702.173 191.42C701.726 191.054 701.284 190.683 700.846 190.309L701.125 189.983C700.69 189.611 700.259 189.234 699.832 188.853L699.547 189.173C699.117 188.788 698.691 188.398 698.27 188.004L698.562 187.692C698.143 187.301 697.729 186.905 697.319 186.506L697.02 186.811C696.606 186.409 696.198 186.002 695.794 185.592L696.1 185.292C695.697 184.883 695.3 184.47 694.907 184.054L694.595 184.348C694.2 183.928 693.81 183.504 693.424 183.077L693.742 182.79C693.358 182.365 692.978 181.935 692.603 181.502L692.278 181.781C691.902 181.345 691.53 180.906 691.163 180.463L691.493 180.189C691.127 179.748 690.765 179.303 690.409 178.854L690.072 179.12C689.714 178.668 689.362 178.212 689.014 177.753L689.356 177.496C689.009 177.039 688.667 176.578 688.33 176.115L687.983 176.365C687.645 175.899 687.311 175.429 686.983 174.956L687.335 174.713C687.008 174.242 686.686 173.768 686.369 173.29L686.011 173.527C685.693 173.047 685.381 172.562 685.073 172.076L685.434 171.847C685.127 171.363 684.826 170.876 684.53 170.385L684.163 170.605C683.865 170.112 683.573 169.616 683.286 169.117L683.656 168.904C683.37 168.407 683.09 167.907 682.815 167.405L682.438 167.61C682.161 167.104 681.891 166.595 681.624 166.084L682.004 165.887C681.74 165.379 681.48 164.868 681.227 164.355L680.844 164.543C680.588 164.026 680.339 163.507 680.094 162.986L680.482 162.805C680.239 162.286 680.001 161.764 679.769 161.24L679.377 161.413C679.144 160.886 678.917 160.356 678.695 159.825L679.09 159.661C678.869 159.132 678.654 158.6 678.444 158.067L678.045 158.222C677.835 157.686 677.629 157.148 677.43 156.607L677.832 156.46C677.634 155.922 677.441 155.382 677.254 154.84L676.849 154.979C676.661 154.435 676.478 153.888 676.302 153.339L676.71 153.209C676.535 152.663 676.366 152.116 676.202 151.567L675.792 151.689C675.627 151.137 675.468 150.583 675.315 150.027L675.727 149.914C675.575 149.362 675.429 148.807 675.288 148.252L674.873 148.356C674.731 147.798 674.595 147.238 674.466 146.676L674.885 146.58C674.756 146.022 674.632 145.461 674.515 144.9L674.096 144.987C673.979 144.424 673.868 143.859 673.762 143.292L674.183 143.214C674.078 142.65 673.98 142.086 673.886 141.52L673.464 141.589C673.37 141.021 673.282 140.451 673.2 139.881L673.625 139.821C673.544 139.253 673.469 138.685 673.401 138.115L672.974 138.166C672.905 137.595 672.843 137.023 672.786 136.449L673.212 136.408C673.155 135.838 673.105 135.266 673.06 134.694L672.634 134.727C672.589 134.153 672.549 133.579 672.517 133.003L672.945 132.979C672.912 132.407 672.886 131.835 672.866 131.261L672.437 131.276C672.416 130.701 672.404 130.125 672.396 129.548L672.824 129.543C672.816 128.97 672.814 128.397 672.818 127.824L672.39 127.82C672.394 127.244 672.403 126.667 672.42 126.09L672.85 126.103C672.867 125.531 672.889 124.959 672.918 124.387L672.49 124.364C672.519 123.789 672.555 123.214 672.596 122.639L673.022 122.67C673.063 122.099 673.111 121.528 673.165 120.957L672.738 120.916C672.792 120.344 672.85 119.771 672.916 119.198L673.343 119.247C673.408 118.678 673.48 118.109 673.557 117.54L673.133 117.481C673.211 116.912 673.295 116.342 673.385 115.773L673.808 115.84C673.898 115.274 673.995 114.709 674.097 114.143L673.675 114.065C673.777 113.5 673.885 112.936 674 112.372L674.42 112.457C674.533 111.896 674.653 111.334 674.78 110.774L674.362 110.68C674.488 110.119 674.62 109.559 674.758 108.999L675.173 109.102C675.311 108.547 675.455 107.992 675.605 107.438L675.191 107.325C675.341 106.77 675.497 106.214 675.659 105.66L676.071 105.781C676.231 105.233 676.398 104.686 676.571 104.139L676.162 104.009C676.336 103.459 676.515 102.91 676.701 102.362L677.107 102.5C677.29 101.96 677.48 101.421 677.675 100.882L677.273 100.735C677.469 100.195 677.671 99.6542 677.879 99.1151L678.279 99.2702L678.595 98.4668C678.702 98.199 678.809 97.9314 678.919 97.6654L678.522 97.5021C678.742 96.9675 678.967 96.4368 679.197 95.9093L679.589 96.0804C679.818 95.5551 680.051 95.0328 680.29 94.5147L679.9 94.336C680.142 93.8099 680.39 93.2877 680.642 92.7691L681.028 92.9565C681.279 92.441 681.534 91.9292 681.794 91.4212L681.414 91.2254C681.678 90.7112 681.946 90.2005 682.219 89.6939L682.596 89.8978C682.869 89.3925 683.146 88.8905 683.428 88.393L683.056 88.1816C683.341 87.6803 683.63 87.1833 683.924 86.6899L684.292 86.9091C684.586 86.4153 684.885 85.9252 685.189 85.4395L684.826 85.2116C684.968 84.9832 685.112 84.7553 685.257 84.5287L685.755 83.759L686.114 83.9938C686.429 83.5129 686.748 83.0358 687.072 82.5633L686.72 82.3209C687.046 81.8455 687.376 81.3738 687.712 80.9068L688.06 81.157C688.394 80.6907 688.734 80.2283 689.078 79.7705L688.735 79.5129L688.734 79.5116C689.081 79.0505 689.433 78.5947 689.788 78.1423L690.125 78.407C690.479 77.9561 690.837 77.5092 691.2 77.067L690.869 76.7956C691.235 76.3491 691.605 75.9063 691.98 75.4688L692.306 75.748C692.678 75.3129 693.056 74.8821 693.437 74.4559L693.117 74.1696L693.116 74.1683C693.501 73.738 693.891 73.313 694.284 72.8919L694.597 73.1849C694.988 72.7659 695.384 72.3518 695.783 71.942L695.477 71.6422C695.84 71.2695 696.206 70.8998 696.576 70.5347L696.696 70.4167L696.997 70.7226C697.406 70.3204 697.819 69.9228 698.235 69.5301L697.941 69.2183L697.941 69.217C698.36 68.8218 698.784 68.4324 699.211 68.0468L699.499 68.3652C699.925 67.9807 700.354 67.6002 700.788 67.2254L700.508 66.9015C700.901 66.5615 701.296 66.2245 701.695 65.8925L701.825 65.7855L702.1 66.1156C702.541 65.7496 702.987 65.3883 703.435 65.0323L703.169 64.6958C703.621 64.3376 704.076 63.9853 704.535 63.6371L704.794 63.979C705.251 63.6323 705.711 63.2899 706.174 62.9533L705.924 62.6063C706.39 62.2678 706.859 61.9337 707.332 61.6054L707.576 61.9582C708.047 61.6312 708.522 61.3095 708.999 60.9928L708.761 60.6351C709.242 60.3164 709.726 60.0029 710.213 59.6946L710.443 60.0573C710.927 59.7507 711.414 59.4497 711.905 59.1536L711.683 58.7857C712.177 58.4877 712.673 58.1951 713.173 57.9077L713.386 58.2797C713.883 57.9939 714.382 57.7129 714.884 57.4377L714.678 57.0611C715.184 56.7841 715.693 56.5132 716.204 56.2471L716.402 56.6275C716.91 56.3628 717.422 56.1038 717.935 55.85L717.745 55.4663C718.262 55.2111 718.781 54.9605 719.303 54.7162L719.484 55.105C720.003 54.862 720.526 54.6247 721.05 54.3928L720.876 53.9998C721.403 53.7668 721.932 53.5392 722.463 53.3173L722.629 53.7135C723.158 53.4927 723.69 53.277 724.223 53.0673L724.066 52.6682C724.602 52.4574 725.141 52.2532 725.681 52.0538L725.829 52.4555C726.367 52.2572 726.907 52.0642 727.449 51.8772L727.308 51.4723C727.853 51.2843 728.4 51.1012 728.949 50.9246L729.08 51.3334C729.626 51.158 730.173 50.9881 730.723 50.8242L730.599 50.4134C731.151 50.2487 731.705 50.0903 732.261 49.9372L732.376 50.35C732.928 50.1979 733.482 50.052 734.037 49.9115L733.932 49.4953C734.491 49.3539 735.051 49.2184 735.613 49.0888L735.709 49.5076C736.267 49.3789 736.828 49.2555 737.389 49.1385L737.301 48.7187C737.864 48.6013 738.43 48.4906 738.996 48.3851L739.075 48.8057C739.639 48.7008 740.204 48.6017 740.77 48.5086L740.699 48.0864C741.268 47.993 741.837 47.9046 742.407 47.8232L742.468 48.248C743.036 48.1671 743.604 48.0925 744.174 48.0236L744.123 47.5975C744.694 47.5284 745.266 47.466 745.839 47.409L745.882 47.8353C746.452 47.7786 747.024 47.728 747.596 47.6834L747.562 47.2559C748.136 47.2111 748.711 47.1716 749.286 47.139L749.31 47.5678C749.882 47.5355 750.454 47.5094 751.028 47.4892L751.012 47.0606C751.588 47.0403 752.164 47.0267 752.741 47.0188L752.747 47.4473C753.319 47.4394 753.892 47.4371 754.465 47.4414L754.469 47.0129C755.045 47.0172 755.622 47.0265 756.199 47.0432L756.199 47.0445L756.186 47.4734C756.758 47.49 757.33 47.5125 757.902 47.5413L757.924 47.1126C758.499 47.1416 759.075 47.1781 759.65 47.2195L759.62 47.6459C760.191 47.6869 760.761 47.7345 761.332 47.7878L761.372 47.361C761.945 47.4146 762.518 47.4727 763.091 47.5387L763.092 47.5399L763.043 47.9662C763.611 48.0316 764.18 48.1027 764.749 48.1804L764.806 47.7566C765.376 47.8345 765.946 47.9184 766.515 48.0087L766.449 48.4312C767.015 48.521 767.581 48.618 768.147 48.7202L768.223 48.2974C768.788 48.3994 769.353 48.5073 769.918 48.6217L769.832 49.0427C770.393 49.1565 770.955 49.2765 771.515 49.4027L771.609 48.9849C772.17 49.111 772.73 49.243 773.29 49.3815L773.188 49.7969C773.743 49.9342 774.297 50.0781 774.851 50.2277L774.964 49.8141C775.519 49.9642 776.075 50.1201 776.629 50.2825L776.509 50.6938C777.057 50.8543 777.604 51.0212 778.151 51.1939L778.28 50.785C778.83 50.9587 779.379 51.1378 779.927 51.3238L779.79 51.7304C780.33 51.9136 780.869 52.1031 781.407 52.2984L781.553 51.896C782.094 52.0923 782.635 52.2937 783.174 52.5022L783.019 52.9019C783.287 53.0056 783.555 53.1116 783.823 53.2183C784.091 53.325 784.358 53.4324 784.624 53.5416L784.786 53.1448C785.321 53.3644 785.851 53.59 786.379 53.8196L786.21 54.2126C786.735 54.4413 787.256 54.6746 787.774 54.9131L787.953 54.5228C788.479 54.7649 789.001 55.0127 789.519 55.2648L789.333 55.6509C789.848 55.9017 790.361 56.1572 790.869 56.4178L791.063 56.0358C791.577 56.2994 792.088 56.5683 792.594 56.8416L792.391 57.2191C792.897 57.4918 793.399 57.769 793.896 58.0513L794.107 57.6789C794.608 57.9634 795.106 58.2531 795.599 58.5472L795.381 58.9154C795.875 59.2096 796.365 59.5087 796.85 59.8123L797.077 59.4483C797.565 59.7536 798.05 60.0631 798.53 60.3777L798.295 60.7373C798.776 61.0524 799.254 61.3714 799.727 61.6957L799.968 61.3418C800.443 61.668 800.914 61.9989 801.381 62.3342L801.132 62.6827C801.598 63.0175 802.061 63.3573 802.519 63.7011L802.776 63.3581L802.777 63.3571C803.238 63.7036 803.694 64.0558 804.147 64.4111L803.883 64.7485C804.334 65.1025 804.781 65.4604 805.223 65.823L805.493 65.4924C805.94 65.8585 806.383 66.2279 806.82 66.6027L806.542 66.929C806.977 67.3016 807.407 67.6788 807.833 68.0598L808.119 67.7397L808.12 67.7388C808.55 68.1237 808.975 68.5136 809.396 68.9068L809.104 69.2203C809.523 69.6115 809.938 70.0074 810.348 70.4068L810.646 70.0989C811.059 70.5013 811.468 70.9075 811.872 71.318L811.566 71.6199C811.969 72.0289 812.366 72.4418 812.759 72.8585L813.071 72.5635C813.467 72.9831 813.857 73.4072 814.242 73.8345L813.925 74.1222C814.309 74.548 814.689 74.9775 815.064 75.4109L815.387 75.1307C815.764 75.5665 816.136 76.0053 816.504 76.4484L816.173 76.7226C816.54 77.1646 816.902 77.6098 817.258 78.0589L817.592 77.7917C817.95 78.2432 818.303 78.6984 818.651 79.1569L818.31 79.4163C818.657 79.873 818.999 80.3338 819.336 80.7974L819.682 80.5464C820.02 81.0126 820.354 81.4817 820.683 81.9545L820.332 82.1994C820.659 82.6704 820.98 83.1455 821.297 83.6229L821.654 83.3845C821.973 83.8649 822.285 84.3489 822.594 84.8356L822.232 85.0656C822.538 85.5499 822.841 86.0367 823.137 86.5271L823.503 86.305C823.801 86.7985 824.093 87.2951 824.381 87.7946L824.01 88.0083C824.296 88.505 824.576 89.0052 824.851 89.5075L825.227 89.3009C825.504 89.8065 825.775 90.3149 826.041 90.8261L825.662 91.0248C825.926 91.5332 826.185 92.0446 826.439 92.5583L826.823 92.3677C827.078 92.8845 827.327 93.4044 827.572 93.9265L827.185 94.1077C827.428 94.6269 827.665 95.149 827.897 95.6731L828.289 95.4993L828.29 95.4984C828.523 96.0253 828.75 96.5548 828.972 97.0865L828.576 97.2527C828.797 97.7815 829.012 98.3128 829.222 98.8461L829.621 98.6888C829.832 99.225 830.036 99.7639 830.235 100.305L829.834 100.453C830.033 100.99 830.226 101.53 830.413 102.072L830.817 101.931C831.005 102.476 831.187 103.023 831.364 103.572L831.364 103.572L830.956 103.703C831.131 104.249 831.301 104.796 831.465 105.346L831.875 105.222C832.04 105.774 832.198 106.329 832.351 106.885L831.939 106.999C832.091 107.551 832.238 108.105 832.378 108.661L832.794 108.555C832.935 109.114 833.071 109.674 833.201 110.235L833.2 110.236L832.782 110.332C832.911 110.891 833.034 111.451 833.151 112.012L833.57 111.924C833.688 112.488 833.798 113.053 833.904 113.62L833.483 113.698C833.588 114.262 833.687 114.827 833.78 115.393L834.203 115.322C834.296 115.89 834.385 116.459 834.466 117.03L834.466 117.031L834.041 117.091C834.122 117.659 834.197 118.227 834.266 118.797L834.692 118.746C834.761 119.317 834.823 119.889 834.88 120.462L834.454 120.505C834.511 121.075 834.562 121.647 834.607 122.219L835.033 122.185C835.078 122.759 835.117 123.334 835.149 123.909L834.722 123.933C834.754 124.505 834.781 125.078 834.801 125.651L835.228 125.635C835.248 126.211 835.262 126.787 835.27 127.364L834.843 127.371C834.851 127.943 834.852 128.515 834.848 129.088L835.276 129.091C835.271 129.667 835.262 130.244 835.245 130.822L834.817 130.81C834.8 131.381 834.777 131.953 834.749 132.526L835.176 132.546C835.147 133.122 835.111 133.698 835.07 134.274L834.643 134.243C834.602 134.814 834.555 135.385 834.502 135.955L834.928 135.995C834.875 136.568 834.817 137.141 834.751 137.713L834.75 137.714L834.324 137.665C834.259 138.234 834.187 138.803 834.11 139.372L834.533 139.43C834.455 139.999 834.371 140.569 834.28 141.138L833.858 141.072C833.768 141.638 833.672 142.204 833.57 142.769L833.992 142.846C833.89 143.411 833.781 143.975 833.667 144.539L833.247 144.455C833.133 145.017 833.013 145.578 832.887 146.139L833.304 146.233C833.178 146.793 833.046 147.353 832.908 147.912L832.493 147.81C832.355 148.365 832.212 148.92 832.062 149.475L832.475 149.587Z" stroke="black" stroke-width="0.858482" stroke-dasharray="1.72 1.72"/>
<path d="M771.828 84.542C795.97 94.1649 807.74 121.537 798.117 145.679C788.494 169.821 761.122 181.591 736.98 171.968C712.838 162.345 701.068 134.973 710.691 110.831C720.314 86.6892 747.686 74.9191 771.828 84.542ZM770.667 88.0426C748.525 79.217 723.421 90.0124 714.596 112.154C705.77 134.296 716.565 159.399 738.706 168.225C760.848 177.051 785.952 166.256 794.778 144.115C803.604 121.973 792.809 96.8682 770.667 88.0426Z" fill="black"/>
<path d="M781.166 124.689L755.246 114.357C754.902 114.22 754.514 114.35 754.321 114.665L750.279 121.285C750.163 121.475 750.136 121.707 750.207 121.917C750.277 122.129 750.437 122.297 750.644 122.38L767.264 129.005C767.611 129.143 767.878 129.425 767.996 129.78C768.115 130.134 768.071 130.521 767.876 130.839L758.373 146.403C756.774 149.022 753.186 150.24 750.375 149.12L737.223 143.877C736.879 143.74 736.49 143.87 736.298 144.185L732.256 150.806C732.139 150.996 732.113 151.228 732.184 151.438C732.254 151.65 732.413 151.818 732.621 151.901L745.453 157.016C752.996 160.023 762.626 156.748 766.919 149.717L781.532 125.784C781.649 125.593 781.675 125.362 781.605 125.151C781.534 124.941 781.375 124.771 781.167 124.688L781.166 124.689Z" fill="black"/>
<path d="M752.545 140.967L756.588 134.346C756.704 134.156 756.731 133.925 756.66 133.714C756.59 133.502 756.43 133.334 756.223 133.251L743.39 128.136C742.027 127.592 741.038 126.583 740.609 125.293C740.171 123.979 740.365 122.543 741.156 121.249L748.495 109.228C750.094 106.609 753.681 105.391 756.493 106.512L769.646 111.754C769.989 111.891 770.378 111.761 770.57 111.447L774.612 104.826C774.729 104.635 774.755 104.404 774.684 104.192C774.613 103.98 774.454 103.812 774.247 103.729L761.414 98.6139C753.872 95.6073 744.242 98.8815 739.949 105.913L732.609 117.933C730.522 121.353 730.004 125.133 731.152 128.578C732.277 131.952 734.874 134.6 738.468 136.032L751.62 141.275C751.963 141.411 752.353 141.282 752.544 140.967L752.545 140.967Z" fill="black"/>
<path d="M704.148 87.2656C702.587 85.8039 702.454 83.8941 703.895 82.3548C705.024 81.1495 706.575 81.0071 707.794 81.917L706.774 83.0061C706.092 82.5993 705.334 82.6664 704.763 83.2763C703.988 84.104 704.208 85.2368 705.189 86.1547C706.162 87.0657 707.314 87.2178 708.089 86.3901C708.66 85.7802 708.677 85.0196 708.226 84.3659L709.246 83.2767C710.234 84.4336 710.194 85.9901 709.065 87.1954C707.624 88.7347 705.709 88.7273 704.148 87.2656ZM709.222 77.0958L710.359 76.1296L713.67 80.0256C714.43 80.92 714.352 81.8734 713.458 82.6335L712.48 83.4644L711.649 82.4866L712.278 81.952C712.726 81.572 712.72 81.2116 712.346 80.772L709.222 77.0958ZM719.979 77.5126L718.716 70.207L720.269 69.3147L725.929 74.0922L724.541 74.8903L723.317 73.8385L721.023 75.1571L721.315 76.7442L719.979 77.5126ZM720.768 73.9154L722.363 72.9983L720.243 71.1654L720.768 73.9154ZM725.983 70.0952C725.178 68.1139 725.858 66.324 727.811 65.5303C729.341 64.9087 730.808 65.4291 731.534 66.7662L730.152 67.3278C729.703 66.6726 728.987 66.4161 728.213 66.7306C727.162 67.1574 726.888 68.2782 727.393 69.5223C727.895 70.7572 728.877 71.378 729.928 70.9512C730.702 70.6367 731.036 69.9533 730.901 69.1708L732.283 68.6092C732.696 70.0736 732.007 71.47 730.477 72.0916C728.523 72.8853 726.788 72.0764 725.983 70.0952ZM734.665 70.2974L735.402 62.9203L737.136 62.4757L741.313 68.5931L739.762 68.9907L738.863 67.6499L736.3 68.307L736.158 69.9145L734.665 70.2974ZM736.387 67.0423L738.169 66.5853L736.616 64.252L736.387 67.0423ZM743.389 68.1115L742.614 61.1919L745.016 60.9228C747.132 60.6858 748.666 61.9651 748.893 63.9916C749.12 66.018 747.907 67.6053 745.792 67.8423L743.389 68.1115ZM744.734 66.7097L745.653 66.6067C746.938 66.4627 747.528 65.4757 747.381 64.161C747.234 62.8463 746.44 62.0144 745.155 62.1584L744.235 62.2614L744.734 66.7097ZM751.839 60.264L756.513 60.3422L756.492 61.6251L753.309 61.5719L753.283 63.1333L755.869 63.1766L755.848 64.3999L753.263 64.3566L753.236 65.9678L756.528 66.0229L756.506 67.3058L751.722 67.2258L751.839 60.264ZM759.997 60.5228L761.932 60.8375L763.015 66.1938L765.682 61.4478L767.577 61.7562L766.458 68.6286L765.054 68.4001L765.804 63.7956L763.268 68.1094L762.07 67.9144L761.032 63.0192L760.283 67.6237L758.879 67.3952L759.997 60.5228ZM770.622 62.2919L772.279 62.8267L772.888 66.0232L775.327 63.8108L776.907 64.3212L773.13 67.7007L772.335 70.1618L770.916 69.7034L771.71 67.2423L770.622 62.2919ZM782.077 70.2025C783.131 68.3419 784.957 67.7641 786.791 68.8037C788.228 69.6177 788.73 71.0914 788.132 72.4902L786.834 71.7547C787.069 70.9963 786.826 70.2754 786.099 69.8635C785.113 69.3045 784.063 69.7845 783.401 70.9528C782.744 72.1125 782.867 73.2681 783.853 73.8271C784.58 74.239 785.324 74.0772 785.853 73.4855L787.151 74.2211C786.259 75.4531 784.736 75.7794 783.3 74.9654C781.465 73.9258 781.023 72.0632 782.077 70.2025ZM792.176 72.0486L795.905 74.8686L795.131 75.892L792.592 73.972L791.65 75.2176L793.713 76.7776L792.975 77.7534L790.912 76.1934L789.94 77.4786L792.566 79.4646L791.792 80.4881L787.976 77.602L792.176 72.0486ZM798.562 77L800.602 78.9692C801.704 80.0333 801.812 81.3961 800.831 82.4122C800.209 83.0561 799.375 83.2466 798.611 82.9926L797.733 85.8781L796.545 84.7311L797.331 82.2412L796.423 81.3636L794.799 83.0451L793.726 82.0087L798.562 77ZM798.772 78.9308L797.286 80.4692L798.166 81.3191C798.674 81.8097 799.287 81.8201 799.736 81.355C800.192 80.8827 800.16 80.2713 799.652 79.7807L798.772 78.9308ZM804.326 82.6427L807.775 86.9406L806.774 87.7437L805.516 86.1766L801.086 89.7312L800.153 88.5675L804.583 85.0129L803.325 83.4458L804.326 82.6427ZM809.674 89.4248L810.492 90.6725L804.67 94.4906L803.852 93.2429L809.674 89.4248ZM812.348 93.6351L814.491 97.7003L813.356 98.2987L811.909 95.5534L810.466 96.3141L811.654 98.5667L810.571 99.1372L809.384 96.8847L806.885 98.202L806.189 96.8822L812.348 93.6351ZM815.882 100.482L816.456 101.859L810.031 104.541L809.456 103.164L815.882 100.482ZM814.324 105.877C816.374 105.267 818.09 106.115 818.692 108.136C819.163 109.719 818.504 111.129 817.103 111.723L816.678 110.293C817.373 109.909 817.697 109.221 817.459 108.42C817.135 107.334 816.046 106.952 814.759 107.336C813.481 107.716 812.769 108.634 813.093 109.721C813.331 110.522 813.979 110.92 814.771 110.861L815.197 112.291C813.7 112.56 812.376 111.74 811.905 110.158C811.303 108.137 812.275 106.488 814.324 105.877ZM813.29 114.513L820.567 115.928L820.85 117.696L814.374 121.29L814.121 119.709L815.539 118.938L815.121 116.326L813.533 116.036L813.29 114.513ZM816.372 116.528L816.663 118.345L819.129 117.014L816.372 116.528ZM821.462 121.846L821.676 127.352L820.394 127.402L820.316 125.394L814.641 125.615L814.583 124.124L820.258 123.903L820.18 121.896L821.462 121.846ZM821.712 130.532L821.374 135.195L820.094 135.102L820.324 131.927L818.767 131.814L818.58 134.394L817.36 134.306L817.546 131.726L815.939 131.61L815.701 134.894L814.422 134.801L814.767 130.029L821.712 130.532Z" fill="black"/>
<path d="M686.816 116.445L693.475 119.705L693.288 121.486L686.099 123.271L686.266 121.678L687.836 121.303L688.112 118.672L686.655 117.979L686.816 116.445ZM689.268 119.193L689.075 121.023L691.803 120.38L689.268 119.193ZM685.889 126.356L692.848 126.134L692.926 128.55C692.993 130.678 691.596 132.106 689.558 132.171C687.52 132.236 686.034 130.9 685.966 128.772L685.889 126.356ZM687.179 127.808L687.209 128.733C687.25 130.025 688.187 130.692 689.509 130.65C690.832 130.607 691.724 129.882 691.683 128.59L691.653 127.665L687.179 127.808ZM690.871 141.589C688.872 141.938 687.142 140.816 686.79 138.797C686.439 136.778 687.687 135.137 689.686 134.789C691.685 134.44 693.416 135.562 693.767 137.581C694.119 139.6 692.871 141.241 690.871 141.589ZM689.948 136.288C688.654 136.513 687.833 137.424 688.035 138.58C688.235 139.727 689.315 140.306 690.608 140.08C691.902 139.855 692.723 138.944 692.523 137.798C692.321 136.642 691.241 136.062 689.948 136.288ZM694.76 143.334L695.578 145.85C696.077 147.382 695.732 148.478 694.626 148.838C693.793 149.108 693.132 148.78 692.716 148.015C692.898 148.992 692.631 149.748 691.685 150.056C690.541 150.428 689.526 149.754 688.997 148.127L688.138 145.488L694.76 143.334ZM694.105 145.116L692.497 145.639L692.866 146.774C693.063 147.379 693.492 147.637 693.984 147.477C694.476 147.317 694.674 146.866 694.474 146.251L694.105 145.116ZM691.4 145.996L689.726 146.541L690.126 147.77C690.347 148.451 690.786 148.738 691.296 148.571C691.836 148.396 692.018 147.897 691.8 147.226L691.4 145.996ZM697.275 150.913L699.251 155.15L698.088 155.692L696.743 152.808L695.328 153.468L696.421 155.812L695.312 156.329L694.219 153.985L692.758 154.666L694.15 157.65L692.988 158.193L690.965 153.857L697.275 150.913ZM696.906 165.135L702.564 161.077L703.433 162.289L698.818 165.6L700.43 167.846L699.387 168.594L696.906 165.135ZM706.473 166.448L709.615 169.91L708.665 170.772L706.525 168.415L705.369 169.465L707.107 171.38L706.201 172.202L704.463 170.287L703.27 171.37L705.483 173.808L704.532 174.67L701.317 171.128L706.473 166.448ZM706.418 176.698L712.873 173.051L714.235 174.212L711.642 181.15L710.423 180.111L711.001 178.605L708.987 176.888L707.592 177.698L706.418 176.698ZM710.071 176.23L711.472 177.424L712.484 174.81L710.071 176.23ZM717.824 177.207L720.209 178.74C721.498 179.568 721.871 180.883 721.107 182.071C720.623 182.825 719.843 183.174 719.044 183.075L718.746 186.076L717.357 185.183L717.642 182.588L716.579 181.905L715.316 183.871L714.06 183.065L717.824 177.207ZM718.407 179.06L717.251 180.859L718.281 181.52C718.875 181.902 719.477 181.793 719.827 181.249C720.182 180.696 720.031 180.103 719.437 179.721L718.407 179.06ZM721.547 187.743L724.491 181.433L725.717 182.005L726.539 187.229L728.394 183.254L729.728 183.877L726.784 190.187L725.549 189.61L724.726 184.386L722.872 188.361L721.547 187.743ZM732.283 185.021L733.694 185.507L731.425 192.09L730.015 191.604L732.283 185.021ZM734.792 193.163L736.35 186.376L737.668 186.679L739.566 191.615L740.548 187.34L741.983 187.669L740.425 194.456L739.097 194.151L737.199 189.215L736.217 193.49L734.792 193.163ZM744.027 191.663C744.199 189.532 745.621 188.24 747.752 188.412C749.428 188.547 750.504 189.672 750.572 191.185L749.104 191.066C748.988 190.288 748.463 189.737 747.611 189.668C746.451 189.574 745.652 190.448 745.543 191.786C745.435 193.125 746.054 194.113 747.244 194.209C748.037 194.273 748.874 193.921 749.091 192.961L749.098 192.872L747.373 192.732L747.468 191.552L750.572 191.803L750.26 195.66L749.229 195.577L749.14 194.701C748.734 195.158 748.024 195.539 747.043 195.46C745.06 195.3 743.854 193.795 744.027 191.663ZM757.653 188.73L759.592 188.448L762.238 193.229L763.352 187.9L765.252 187.624L766.255 194.514L764.848 194.719L764.175 190.102L763.056 194.98L761.855 195.155L759.392 190.799L760.064 195.416L758.656 195.621L757.653 188.73ZM769.354 194.015L769.745 186.611L771.456 186.086L775.915 192L774.384 192.47L773.424 191.173L770.895 191.95L770.828 193.562L769.354 194.015ZM770.922 190.683L772.681 190.142L771.02 187.885L770.922 190.683ZM778.842 190.98L775.893 184.672L777.118 184.099L781.652 186.821L779.794 182.848L781.128 182.224L784.077 188.532L782.843 189.109L778.309 186.387L780.167 190.36L778.842 190.98ZM786.853 187.192L785.212 179.962L786.716 178.99L792.617 183.466L791.272 184.335L789.995 183.349L787.773 184.785L788.148 186.355L786.853 187.192ZM787.454 183.558L788.999 182.559L786.786 180.84L787.454 183.558ZM792.415 179.397C791.011 177.784 791.081 175.864 792.694 174.46C793.962 173.357 795.519 173.373 796.648 174.382L795.537 175.348C794.9 174.888 794.139 174.878 793.494 175.439C792.616 176.203 792.682 177.385 793.563 178.398C794.445 179.411 795.584 179.66 796.484 178.876C797.084 178.354 797.418 177.509 796.883 176.683L796.824 176.615L795.519 177.751L794.742 176.858L797.09 174.815L799.63 177.733L798.85 178.413L798.162 177.864C798.204 178.474 797.981 179.248 797.238 179.894C795.738 181.2 793.819 181.011 792.415 179.397ZM797.069 170.668L800.154 167.156L801.118 168.003L799.017 170.394L800.19 171.425L801.897 169.482L802.817 170.29L801.11 172.233L802.32 173.296L804.493 170.823L805.457 171.67L802.299 175.264L797.069 170.668ZM801.849 165.161L803.483 162.844C804.366 161.592 805.696 161.277 806.85 162.091C807.582 162.607 807.898 163.401 807.764 164.195L810.75 164.621L809.798 165.971L807.217 165.575L806.489 166.607L808.399 167.954L807.539 169.174L801.849 165.161ZM803.725 164.658L805.473 165.891L806.178 164.891C806.585 164.314 806.502 163.707 805.973 163.334C805.437 162.956 804.837 163.081 804.43 163.658L803.725 164.658Z" fill="black"/>
<ellipse cx="694.013" cy="104.532" rx="2.41933" ry="2.41932" transform="rotate(21.7321 694.013 104.532)" fill="black"/>
<ellipse cx="813.12" cy="152.008" rx="2.41933" ry="2.41932" transform="rotate(21.7321 813.12 152.008)" fill="black"/>
</svg>
